<svg width="91" height="91" viewBox="0 0 91 91" fill="none" xmlns="http://www.w3.org/2000/svg">
    <path
        d="M68.6321 74.3834C53.2167 74.3834 37.8104 74.3834 22.395 74.3834C17.6812 74.3834 13.841 70.5887 13.8137 65.8658V38.7023C13.8137 33.9703 17.663 30.1119 22.3677 30.1119C22.8955 30.1119 23.3232 30.5396 23.3232 31.0674L23.3141 39.1391C27.7367 39.1391 32.1502 39.1391 36.5637 39.1391L40.8771 26.9451C40.9317 25.2161 41.9145 23.6509 43.4251 22.8501V17.5721C43.4251 17.0443 43.8528 16.6166 44.3806 16.6166H46.8376C47.3654 16.6166 47.784 17.0443 47.784 17.5721V22.75C49.4038 23.5235 50.4685 25.1433 50.5231 26.9451L54.8365 39.1391H67.6857V31.0674C67.6857 30.5396 68.1043 30.1119 68.6321 30.1119C73.3368 30.1119 77.1679 33.9248 77.1861 38.6295L77.1952 65.8203C77.086 70.6797 73.4915 74.2742 68.6321 74.3834ZM45.8912 22.2768V18.5185H45.327V22.2768C45.509 22.2768 45.7001 22.2768 45.8912 22.2768ZM45.6273 24.1787C44.0439 24.2151 42.7699 25.5164 42.7699 27.1089C42.7699 28.7196 44.0894 30.0391 45.7001 30.0391C47.3199 30.0391 48.6303 28.7196 48.6303 27.1089C48.6303 25.4254 47.2835 24.1787 45.6273 24.1787ZM35.7538 47.1107C36.5455 47.2108 37.2098 47.5748 37.7558 48.1572C38.0743 48.0571 38.3928 48.0571 38.7113 48.1117C40.6223 42.6608 42.5242 37.2099 44.4261 31.759C43.3887 31.4769 42.4605 30.8399 41.8144 29.9663L35.7538 47.1107ZM38.6112 50.0227C38.6294 50.1501 38.6385 50.2684 38.6385 50.3958C38.6385 51.5788 37.9924 52.6799 36.9823 53.2623L34.0612 60.8062C33.6881 61.7708 32.2321 61.5069 32.2321 60.4695L32.2594 51.6971C32.0865 51.2967 31.9955 50.8599 31.9955 50.3958C31.9955 49.231 32.6052 48.1572 33.588 47.5657L35.8994 41.0319C31.7043 41.0319 27.5092 41.0319 23.3141 41.0319V58.0489C23.2868 58.6404 23.0593 59.15 22.3677 59.15C18.6913 59.15 15.7065 62.1348 15.7065 65.8203C15.7065 69.4967 18.6913 72.4815 22.3677 72.4815C37.7831 72.4815 53.1894 72.4815 68.6048 72.4815C72.2994 72.4815 75.2933 69.5149 75.2933 65.8203C75.2933 62.1348 72.3085 59.15 68.6321 59.15C68.1043 59.15 67.6857 58.7314 67.6857 58.2036V41.0319H55.5099L60.2237 54.3907C60.2874 54.5545 60.2965 54.7183 60.2601 54.8821L59.159 60.6424C58.977 61.5979 57.6393 61.6798 57.3299 60.7607C55.974 57.2754 54.6454 53.781 53.2713 50.3048C53.153 50.0318 52.9892 49.9226 52.4887 50.1501C52.0064 50.3594 51.4513 50.1501 51.242 49.6678L48.2208 41.0319H43.1885L40.1673 49.6678C39.8215 50.4504 39.1936 50.2229 38.6112 50.0227ZM34.7983 53.6809C34.5708 53.6445 34.3524 53.5808 34.1431 53.508V55.3735L34.7983 53.6809ZM35.317 48.9762C34.5435 48.9762 33.8883 49.595 33.8883 50.3958C33.8883 51.1875 34.5253 51.8245 35.317 51.8245C36.0996 51.8245 36.7366 51.1875 36.7366 50.3958C36.7366 49.6314 36.1269 48.9762 35.317 48.9762ZM49.5858 29.9663C48.9397 30.8399 48.0297 31.4769 46.9741 31.759L52.6798 48.0844C53.9265 47.7932 54.4907 48.4029 55.0003 49.5313C55.9831 52.0338 56.9477 54.5454 57.9214 57.057L58.3582 54.7729L49.5858 29.9663ZM45.7001 33.8429L43.8528 39.1391H47.5565L45.7001 33.8429ZM21.4213 57.3118C21.4213 48.9034 21.4213 40.4859 21.4213 32.0775C18.1453 32.5507 15.7065 35.3626 15.7065 38.675V60.4513C17.1261 58.695 19.1736 57.5575 21.4213 57.3118ZM69.5785 57.3118C71.8171 57.5575 73.8828 58.695 75.2933 60.4513V38.7023C75.2933 35.3717 72.8818 32.5507 69.5785 32.0775C69.5785 40.4859 69.5785 48.9034 69.5785 57.3118Z"
        fill="#bb976d"></path>
</svg>