<?xml version="1.0" encoding="UTF-8"?>
<svg width="752px" height="142px" viewBox="0 0 752 142" version="1.1" xmlns="http://www.w3.org/2000/svg" xmlns:xlink="http://www.w3.org/1999/xlink">
    <title>JARDINICO-PANTONEP179-12U-100%_registered_OPMAAK-04-2020</title>
    <defs>
        <polygon id="path-1" points="0 613 858.898 613 858.898 0.717 0 0.717"></polygon>
    </defs>
    <g id="Page-1" stroke="none" stroke-width="1" fill="none" fill-rule="evenodd">
        <g id="JARDINICO-PANTONEP179-12U-100%_registered_OPMAAK-04-2020" transform="translate(-56.000000, -206.000000)">
            <path d="M96.8175,344.6717 L782.1755,344.6717 L96.8175,344.6717 Z" id="Fill-1" fill="#525251"></path>
            <line x1="96.8179" y1="344.6714" x2="782.1759" y2="344.6714" id="Stroke-2" stroke="#525251" stroke-width="6" stroke-linecap="round" stroke-linejoin="round"></line>
            <g id="Group-18" transform="translate(0.000000, 0.283000)">
                <path d="M56.128,320.4714 C65.368,320.4714 67.709,318.9544 67.709,311.9234 L67.709,235.2754 L79.562,235.2754 L79.562,313.7134 C79.562,323.6384 72.944,330.1174 60.817,330.1174 L56.128,330.1174 L56.128,320.4714 Z M67.709,218.7384 L79.563,218.7384 L79.563,205.7804 L67.709,205.7804 L67.709,218.7384 Z" id="Fill-3" fill="#525251"></path>
                <path d="M176.1944,298.5535 L175.9154,298.5535 C172.7484,304.8935 169.0274,306.6825 150.8274,306.6825 L122.4314,306.6825 C104.5144,306.6825 99.8244,298.8265 99.8244,285.5955 L99.8244,280.9075 C99.8244,264.9165 111.1254,262.9865 131.8064,262.9865 L150.8274,262.9865 C166.2694,262.9865 171.7804,264.6425 175.9154,271.3955 L176.1944,271.3955 L176.1944,258.1635 C176.1944,245.4795 168.1984,243.8235 149.9994,243.8235 L132.6314,243.8235 C117.7444,243.8235 114.8454,247.4075 114.8454,253.2005 L114.8454,255.6825 L102.9944,255.6825 L102.9944,252.2305 C102.9944,239.4125 111.1254,234.1715 132.3554,234.1715 L151.1034,234.1715 C173.1604,234.1715 188.0474,237.4835 188.0474,258.4375 L188.0474,305.5835 L176.1944,305.5835 L176.1944,298.5535 Z M176.1944,283.5275 C176.1944,273.8755 167.6464,272.6375 149.4494,272.6375 L131.2514,272.6375 C115.9484,272.6375 111.6784,274.8405 111.6784,283.6675 L111.6784,285.8685 C111.6784,293.7245 114.4384,297.0375 130.7024,297.0375 L146.4144,297.0375 C167.9234,297.0375 176.1944,295.5205 176.1944,286.6945 L176.1944,283.5275 Z" id="Fill-5" fill="#525251"></path>
                <path d="M209.9566,235.281 L220.9856,235.281 L220.9856,245.479 L221.2616,245.479 C225.6716,236.38 234.6316,234.178 242.7666,234.178 L253.9316,234.178 C276.1256,234.178 283.4336,241.347 283.4336,258.576 L283.4336,266.984 L272.4036,266.984 L272.4036,263.95 C272.4036,246.583 268.8186,243.829 247.7296,243.829 L240.4216,243.829 C227.8766,243.829 221.8136,251.818 221.8136,260.917 L221.8136,305.584 L209.9566,305.584 L209.9566,235.281 Z" id="Fill-7" fill="#525251"></path>
                <path d="M384.1934,305.5837 L373.1634,305.5837 L373.1634,294.4167 L372.8884,294.4167 C369.4444,302.9637 359.7934,306.6887 347.3884,306.6887 L330.8444,306.6887 C309.3394,306.6887 294.3134,301.3087 294.3134,277.0487 L294.3134,264.6427 C294.3134,242.1667 303.0004,234.1777 331.5364,234.1777 L349.5934,234.1777 C363.1024,234.1777 369.5784,237.3437 372.0604,244.6537 L372.3394,244.6537 L372.3394,205.7797 L384.1934,205.7797 L384.1934,305.5837 Z M306.1704,276.9087 C306.1704,290.5587 310.4434,297.0377 329.7414,297.0377 L349.0384,297.0377 C366.6844,297.0377 372.3394,289.5927 372.3394,276.7697 L372.3394,263.3987 C372.3394,246.5827 362.5484,243.8287 346.5574,243.8287 L330.5664,243.8287 C314.3014,243.8287 306.1704,246.8557 306.1704,263.1257 L306.1704,276.9087 Z" id="Fill-9" fill="#525251"></path>
                <mask id="mask-2" fill="white">
                    <use xlink:href="#path-1"></use>
                </mask>
                <g id="Clip-12"></g>
                <path d="M408.167,218.739 L420.022,218.739 L420.022,205.775 L408.167,205.775 L408.167,218.739 Z M408.167,305.584 L420.022,305.584 L420.022,235.281 L408.167,235.281 L408.167,305.584 Z" id="Fill-11" fill="#525251" mask="url(#mask-2)"></path>
                <path d="M444.0039,235.281 L455.0329,235.281 L455.0329,247.407 L455.3089,247.407 C459.7209,236.519 468.9529,234.178 483.7069,234.178 L501.4899,234.178 C523.6839,234.178 530.7149,245.339 530.7149,258.025 L530.7149,305.584 L518.8589,305.584 L518.8589,260.917 C518.8589,250.58 515.9609,243.829 492.9419,243.829 L489.9119,243.829 C462.2039,243.829 455.8599,249.064 455.8599,265.607 L455.8599,305.584 L444.0039,305.584 L444.0039,235.281 Z" id="Fill-13" fill="#525251" mask="url(#mask-2)"></path>
                <path d="M554.69,218.739 L566.542,218.739 L566.542,205.775 L554.69,205.775 L554.69,218.739 Z M554.69,305.584 L566.542,305.584 L566.542,235.281 L554.69,235.281 L554.69,305.584 Z" id="Fill-14" fill="#525251" mask="url(#mask-2)"></path>
                <path d="M587.3546,262.574 C587.3546,237.07 605.2746,234.178 622.6456,234.178 L642.4956,234.178 C664.5526,234.178 673.2366,243.137 673.2366,258.025 L673.2366,259.953 L662.2086,259.953 L662.2086,258.303 C662.2086,246.583 654.4876,243.823 642.6306,243.823 L620.8496,243.823 C609.6876,243.823 599.2086,245.479 599.2086,262.987 L599.2086,277.733 C599.2086,293.451 608.8566,297.037 623.1966,297.037 L643.1876,297.037 C654.2146,297.037 663.4466,293.724 663.4466,282.284 L663.4466,279.941 L674.4756,279.941 L674.4756,282.011 C674.4756,299.791 665.6546,306.682 643.5966,306.682 L616.8526,306.682 C606.2416,306.682 587.3546,303.788 587.3546,278.285 L587.3546,262.574 Z" id="Fill-15" fill="#525251" mask="url(#mask-2)"></path>
                <path d="M690.3204,262.7083 C690.3204,239.5523 706.7244,234.1783 729.1954,234.1783 L746.1504,234.1783 C768.6214,234.1783 785.0244,239.5523 785.0244,262.7083 L785.0244,278.1523 C785.0244,301.3083 768.6214,306.6823 746.1504,306.6823 L729.1954,306.6823 C706.7244,306.6823 690.3204,301.3083 690.3204,278.1523 L690.3204,262.7083 Z M773.1714,263.3983 C773.1714,246.9953 763.5194,243.8233 749.7374,243.8233 L725.6094,243.8233 C711.8214,243.8233 702.1744,246.9953 702.1744,263.3983 L702.1744,277.4613 C702.1744,293.8643 711.8214,297.0373 725.6094,297.0373 L749.7374,297.0373 C763.5194,297.0373 773.1714,293.8643 773.1714,277.4613 L773.1714,263.3983 Z" id="Fill-16" fill="#525251" mask="url(#mask-2)"></path>
                <path d="M793.2383,222.5427 L795.5673,222.5427 C796.6803,222.5427 797.4403,222.3767 797.8453,222.0447 C798.2513,221.7127 798.4533,221.2727 798.4533,220.7267 C798.4533,220.3747 798.3553,220.0597 798.1603,219.7817 C797.9653,219.5027 797.6943,219.2957 797.3473,219.1587 C797.0013,219.0217 796.3583,218.9537 795.4213,218.9537 L793.2383,218.9537 L793.2383,222.5427 Z M791.3193,229.2367 L791.3193,217.3427 L795.4063,217.3427 C796.8023,217.3427 797.8133,217.4527 798.4383,217.6717 C799.0633,217.8917 799.5613,218.2747 799.9323,218.8217 C800.3033,219.3687 800.4893,219.9497 800.4893,220.5647 C800.4893,221.4347 800.1793,222.1907 799.5593,222.8357 C798.9393,223.4797 798.1163,223.8417 797.0913,223.9197 C797.5103,224.0957 797.8473,224.3057 798.1013,224.5497 C798.5803,225.0187 799.1663,225.8047 799.8593,226.9077 L801.3093,229.2367 L798.9663,229.2367 L797.9113,227.3617 C797.0813,225.8877 796.4123,224.9647 795.9043,224.5937 C795.5523,224.3197 795.0403,224.1837 794.3663,224.1837 L793.2383,224.1837 L793.2383,229.2367 L791.3193,229.2367 Z M796.1683,213.8997 C794.6153,213.8997 793.1043,214.2977 791.6343,215.0937 C790.1653,215.8897 789.0143,217.0277 788.1843,218.5067 C787.3543,219.9867 786.9393,221.5267 786.9393,223.1287 C786.9393,224.7207 787.3473,226.2467 788.1633,227.7067 C788.9783,229.1667 790.1183,230.3037 791.5833,231.1197 C793.0483,231.9347 794.5763,232.3427 796.1683,232.3427 C797.7593,232.3427 799.2883,231.9347 800.7533,231.1197 C802.2173,230.3037 803.3553,229.1667 804.1663,227.7067 C804.9763,226.2467 805.3823,224.7207 805.3823,223.1287 C805.3823,221.5267 804.9693,219.9867 804.1443,218.5067 C803.3193,217.0277 802.1693,215.8897 800.6943,215.0937 C799.2193,214.2977 797.7113,213.8997 796.1683,213.8997 L796.1683,213.8997 Z M796.1683,212.0687 C798.0233,212.0687 799.8353,212.5447 801.6023,213.4977 C803.3703,214.4497 804.7473,215.8117 805.7333,217.5847 C806.7193,219.3567 807.2133,221.2047 807.2133,223.1287 C807.2133,225.0327 806.7273,226.8637 805.7563,228.6217 C804.7843,230.3797 803.4223,231.7447 801.6693,232.7157 C799.9163,233.6877 798.0823,234.1737 796.1683,234.1737 C794.2543,234.1737 792.4213,233.6877 790.6683,232.7157 C788.9153,231.7447 787.5503,230.3797 786.5733,228.6217 C785.5963,226.8637 785.1083,225.0327 785.1083,223.1287 C785.1083,221.2047 785.6043,219.3567 786.5953,217.5847 C787.5873,215.8117 788.9663,214.4497 790.7333,213.4977 C792.5013,212.5447 794.3123,212.0687 796.1683,212.0687 L796.1683,212.0687 Z" id="Fill-17" fill="#525251" mask="url(#mask-2)"></path>
            </g>
        </g>
    </g>
</svg>