<svg xmlns="http://www.w3.org/2000/svg" xmlns:xlink="http://www.w3.org/1999/xlink" id="Livello_1" x="0px" y="0px"
    viewBox="0 0 900 300" style="enable-background:new 0 0 900 300;" xml:space="preserve">
    <style type="text/css">
        .st0 {
            fill: #FFFFFF;
        }

        .st1 {
            clip-path: url(#SVGID_00000073722502132962274390000016033944698886484101_);
        }

        .st2 {
            fill: #FFFFFF;
        }

        .st3 {
            clip-path: url(#SVGID_00000083078325207385168870000013208084077404259502_);
        }

        .st4 {
            clip-path: url(#SVGID_00000035510292885234923040000010049320085565639578_);
        }

        .st5 {
            clip-path: url(#SVGID_00000044860599002505887130000007996937678603882915_);
        }

        .st6 {
            clip-path: url(#SVGID_00000132046573208979936090000011531372812896599980_);
        }

        .st7 {
            clip-path: url(#SVGID_00000039133884734801764970000017156328838017814691_);
        }

        .st8 {
            clip-path: url(#SVGID_00000045580711731164026760000013253553563515208622_);
        }

        .st9 {
            clip-path: url(#SVGID_00000090992693276691009490000015673091917334319793_);
        }

        .st10 {
            clip-path: url(#SVGID_00000170970117865681040640000008790716938468779406_);
        }

        .st11 {
            clip-path: url(#SVGID_00000003072952061834280440000002017008731494910878_);
        }

        .st12 {
            clip-path: url(#SVGID_00000067941440411664772850000013310137596715884169_);
        }

        .st13 {
            clip-path: url(#SVGID_00000171703661901404863220000007647425425793904514_);
        }

        .st14 {
            clip-path: url(#SVGID_00000163033319126542824370000018107309351063854986_);
        }

        .st15 {
            clip-path: url(#SVGID_00000072282165143605153240000015767859804528120729_);
        }

        .st16 {
            clip-path: url(#SVGID_00000146494548891169804590000008981297740524449688_);
        }

        .st17 {
            clip-path: url(#SVGID_00000183958664628444764210000006443045042168220811_);
        }

        .st18 {
            clip-path: url(#SVGID_00000119088122109789487230000000884658625690878592_);
        }
    </style>
    <polygon class="st0" points="606.1,218.5 576.2,105.6 546.4,105.6 576.2,218.5 "></polygon>
    <polygon class="st0" points="545.2,218.5 515.2,105.6 485.5,105.6 515.2,218.5 "></polygon>
    <g>
        <defs>
            <rect id="SVGID_1_" y="76.7" width="28.6" height="141.8"></rect>
        </defs>
        <clipPath id="SVGID_00000181063228516188772130000010093724616452782507_">
            <use xlink:href="#SVGID_1_" style="overflow:visible;"></use>
        </clipPath>
        <g style="clip-path:url(#SVGID_00000181063228516188772130000010093724616452782507_);">
            <g>
                <path class="st2" d="M0,76.7h28.6v141.7H0V76.7z"></path>
            </g>
        </g>
    </g>
    <g>
        <defs>
            <rect id="SVGID_00000159467060843976318960000001005541549045180572_" x="52.6" y="76.7" width="28.6"
                height="14.4"></rect>
        </defs>
        <clipPath id="SVGID_00000075845037931134781450000000055425180793550472_">
            <use xlink:href="#SVGID_00000159467060843976318960000001005541549045180572_" style="overflow:visible;">
            </use>
        </clipPath>
        <g style="clip-path:url(#SVGID_00000075845037931134781450000000055425180793550472_);">
            <path class="st2" d="M52.6,76.7h28.6v14.4H52.6V76.7z"></path>
        </g>
    </g>
    <g>
        <defs>
            <rect id="SVGID_00000011725115374257596360000012649067561891726244_" x="52.6" y="105.6" width="28.6"
                height="112.9"></rect>
        </defs>
        <clipPath id="SVGID_00000146471389223531634180000008047285899276136605_">
            <use xlink:href="#SVGID_00000011725115374257596360000012649067561891726244_" style="overflow:visible;">
            </use>
        </clipPath>
        <g style="clip-path:url(#SVGID_00000146471389223531634180000008047285899276136605_);">
            <path class="st2" d="M52.6,105.6h28.6v112.9H52.6V105.6z"></path>
        </g>
    </g>
    <g>
        <defs>
            <rect id="SVGID_00000122696347868427273110000017339602086034038658_" x="102.4" y="105.6" width="89.2"
                height="113.1"></rect>
        </defs>
        <clipPath id="SVGID_00000019640835041875334060000009486567749959595937_">
            <use xlink:href="#SVGID_00000122696347868427273110000017339602086034038658_" style="overflow:visible;">
            </use>
        </clipPath>
        <g style="clip-path:url(#SVGID_00000019640835041875334060000009486567749959595937_);">
            <g>
                <defs>
                    <polygon id="SVGID_00000106108249418915101970000005647087960315125412_"
                        points="191.6,105.6 161.9,105.6 147,162 132.2,105.6      102.4,105.6 132.2,218.5 161.9,218.5     ">
                    </polygon>
                </defs>
                <clipPath id="SVGID_00000180355584430870743200000002144786435116121267_">
                    <use xlink:href="#SVGID_00000106108249418915101970000005647087960315125412_"
                        style="overflow:visible;"></use>
                </clipPath>
                <g style="clip-path:url(#SVGID_00000180355584430870743200000002144786435116121267_);">
                    <path class="st2" d="M102.4,105.6h89.2v112.9h-89.2V105.6z"></path>
                </g>
            </g>
        </g>
    </g>
    <g>
        <defs>
            <rect id="SVGID_00000008846148326770427770000016980239808521877423_" x="212.6" y="76.7" width="28.6"
                height="14.4"></rect>
        </defs>
        <clipPath id="SVGID_00000137105647312769305560000018057507638519353519_">
            <use xlink:href="#SVGID_00000008846148326770427770000016980239808521877423_" style="overflow:visible;">
            </use>
        </clipPath>
        <g style="clip-path:url(#SVGID_00000137105647312769305560000018057507638519353519_);">
            <path class="st2" d="M212.6,76.7h28.6v14.4h-28.6V76.7z"></path>
        </g>
    </g>
    <g>
        <defs>
            <rect id="SVGID_00000028300437590261698820000001835197658922427580_" x="212.6" y="105.6" width="28.6"
                height="112.9"></rect>
        </defs>
        <clipPath id="SVGID_00000178906683527558549230000004662402726875119253_">
            <use xlink:href="#SVGID_00000028300437590261698820000001835197658922427580_" style="overflow:visible;">
            </use>
        </clipPath>
        <g style="clip-path:url(#SVGID_00000178906683527558549230000004662402726875119253_);">
            <path class="st2" d="M212.6,105.6h28.6v112.9h-28.6V105.6z"></path>
        </g>
    </g>
    <g>
        <defs>
            <rect id="SVGID_00000135667754634652191370000010444204356604445588_" x="265.7" y="105.6" width="100"
                height="113.1"></rect>
        </defs>
        <clipPath id="SVGID_00000091733691156309852460000013278694644806184335_">
            <use xlink:href="#SVGID_00000135667754634652191370000010444204356604445588_" style="overflow:visible;">
            </use>
        </clipPath>
        <g style="clip-path:url(#SVGID_00000091733691156309852460000013278694644806184335_);">
            <g>
                <defs>
                    <path id="SVGID_00000088853081395358276020000004672407321154556809_"
                        d="M360.4,127.2c-3.5-7.2-8.4-12.6-14.6-16.1     c-6.2-3.5-13.2-5.3-21-5.3c-8.4,0-15.9,2-22.5,6c-3,1.8-5.7,4-8.1,6.6v-12.9h-28.6v112.9h28.6v-64c0.5-2.9,1.3-5.5,2.3-7.7     c2-4.4,4.8-7.7,8.4-9.8c3.6-2.1,7.7-3.2,12.2-3.2c6.3,0,11.3,2.1,14.7,6.4c3.5,4.3,5.2,10.9,5.2,19.8v58.6h28.6V155     C365.7,143.7,363.9,134.5,360.4,127.2">
                    </path>
                </defs>
                <clipPath id="SVGID_00000176733233142064883120000016504381032451322298_">
                    <use xlink:href="#SVGID_00000088853081395358276020000004672407321154556809_"
                        style="overflow:visible;"></use>
                </clipPath>
                <g style="clip-path:url(#SVGID_00000176733233142064883120000016504381032451322298_);">
                    <path class="st2" d="M265.7,105.6h100v112.9h-100V105.6z"></path>
                </g>
            </g>
        </g>
    </g>
    <g>
        <defs>
            <rect id="SVGID_00000010269730878650429520000017519508628812188074_" x="381.2" y="76.8" width="88.7"
                height="141.9"></rect>
        </defs>
        <clipPath id="SVGID_00000064327000377034514180000002729812373241455264_">
            <use xlink:href="#SVGID_00000010269730878650429520000017519508628812188074_" style="overflow:visible;">
            </use>
        </clipPath>
        <g style="clip-path:url(#SVGID_00000064327000377034514180000002729812373241455264_);">
            <g>
                <defs>
                    <path id="SVGID_00000111903800186468125700000017399184418848308670_"
                        d="M452,190.8h-5.5c-5.1-0.4-9-1.7-11.6-3.8     c-3.3-2.7-5-7.2-5-13.6l0-41.8h31.8v-26h-31.8V76.8h-30.8v28.8h-17.9v26h17.9v44.5c0,14.1,4,24.7,11.9,31.8     c7.3,6.5,17.3,10,30.1,10.5H452c6.6-0.3,12.5-1.3,17.6-3.2v-24.5H452z">
                    </path>
                </defs>
                <clipPath id="SVGID_00000018915729734508018640000000135839894453264777_">
                    <use xlink:href="#SVGID_00000111903800186468125700000017399184418848308670_"
                        style="overflow:visible;"></use>
                </clipPath>
                <g style="clip-path:url(#SVGID_00000018915729734508018640000000135839894453264777_);">
                    <path class="st2" d="M381.2,76.8h88.4v141.5h-88.4V76.8z"></path>
                </g>
            </g>
        </g>
    </g>
    <g>
        <defs>
            <rect id="SVGID_00000007420565603840848320000002802716178732909479_" x="658.8" y="76.7" width="28.6"
                height="14.4"></rect>
        </defs>
        <clipPath id="SVGID_00000080166833421817470130000008253364743419455412_">
            <use xlink:href="#SVGID_00000007420565603840848320000002802716178732909479_" style="overflow:visible;">
            </use>
        </clipPath>
        <g style="clip-path:url(#SVGID_00000080166833421817470130000008253364743419455412_);">
            <path class="st2" d="M658.8,76.7h28.6v14.4h-28.6V76.7z"></path>
        </g>
    </g>
    <g>
        <defs>
            <rect id="SVGID_00000083074099020214026660000011332445091900399744_" x="658.8" y="105.6" width="28.6"
                height="112.9"></rect>
        </defs>
        <clipPath id="SVGID_00000047062368481207934500000010872568551076433291_">
            <use xlink:href="#SVGID_00000083074099020214026660000011332445091900399744_" style="overflow:visible;">
            </use>
        </clipPath>
        <g style="clip-path:url(#SVGID_00000047062368481207934500000010872568551076433291_);">
            <path class="st2" d="M658.8,105.6h28.6v112.9h-28.6V105.6z"></path>
        </g>
    </g>
    <g>
        <defs>
            <rect id="SVGID_00000158030536292238802410000012667448427311104665_" x="709.1" y="105.3" width="86.1"
                height="113.3"></rect>
        </defs>
        <clipPath id="SVGID_00000172427299354202391160000002076878094325181079_">
            <use xlink:href="#SVGID_00000158030536292238802410000012667448427311104665_" style="overflow:visible;">
            </use>
        </clipPath>
        <g style="clip-path:url(#SVGID_00000172427299354202391160000002076878094325181079_);">
            <g>
                <defs>
                    <path id="SVGID_00000166636894827732910170000013428767652501864873_"
                        d="M750.3,218.7c-8.1,0-15.9-1.1-23.4-3.4     s-13.4-5.1-17.8-8.5l9.2-22.9c4.4,3.1,9.5,5.7,15.5,7.7c5.9,2,11.8,3,17.6,3c6.4,0,10.9-0.9,13.5-2.7c2.6-1.8,4-4.2,4-7.4     c0-2.6-1-4.5-3.1-5.8c-2.1-1.3-4.8-2.3-8.2-3c-3.4-0.7-7.2-1.4-11.2-2.1c-4.1-0.7-8.2-1.6-12.3-2.8s-7.9-2.9-11.3-5.2     c-3.4-2.3-6.2-5.5-8.2-9.4c-2.1-4-3.1-9.1-3.1-15.4c0-7,1.7-13.1,5.2-18.4c3.5-5.3,8.5-9.5,15.1-12.6c6.6-3.1,14.5-4.6,23.7-4.6     c6.5,0,13.1,0.8,19.8,2.5c6.7,1.6,12.3,4,16.8,7.2l-9.2,22.7c-4.6-3.1-9.2-5.3-13.9-6.4c-4.7-1.2-9.2-1.7-13.5-1.7     c-6.1,0-10.6,1-13.4,2.9s-4.2,4.4-4.2,7.4c0,2.7,1,4.8,3.1,6.1c2.1,1.4,4.8,2.5,8.2,3.3c3.4,0.8,7.2,1.5,11.2,2.2     c4.1,0.6,8.2,1.5,12.3,2.8c4.1,1.2,7.9,3,11.2,5.2c3.4,2.2,6.1,5.3,8.2,9.2c2.1,3.9,3.2,9,3.2,15.2c0,6.8-1.8,12.9-5.3,18.1     c-3.5,5.3-8.6,9.4-15.3,12.4C767.9,217.2,759.8,218.7,750.3,218.7">
                    </path>
                </defs>
                <clipPath id="SVGID_00000090289292849070642110000013234801519554874774_">
                    <use xlink:href="#SVGID_00000166636894827732910170000013428767652501864873_"
                        style="overflow:visible;"></use>
                </clipPath>
                <g style="clip-path:url(#SVGID_00000090289292849070642110000013234801519554874774_);">
                    <path class="st2" d="M709.1,105.3h86.1v113.3h-86.1V105.3z"></path>
                </g>
            </g>
        </g>
    </g>
    <g>
        <defs>
            <rect id="SVGID_00000067217142123465422790000011343761739972751009_" x="811.6" y="76.8" width="88.4"
                height="141.9"></rect>
        </defs>
        <clipPath id="SVGID_00000165913432122614589540000007015881071292305076_">
            <use xlink:href="#SVGID_00000067217142123465422790000011343761739972751009_" style="overflow:visible;">
            </use>
        </clipPath>
        <g style="clip-path:url(#SVGID_00000165913432122614589540000007015881071292305076_);">
            <g>
                <defs>
                    <path id="SVGID_00000127017725355969403450000009838630387592430473_"
                        d="M882.4,190.8h-5.5c-5.1-0.4-9-1.7-11.6-3.8     c-3.3-2.7-5-7.2-5-13.6l0-41.8h31.8v-26h-31.8V76.8h-30.8v28.8h-17.9v26h17.9v44.5c0,14.1,4,24.7,11.9,31.8     c7.3,6.5,17.3,10,30.1,10.5h10.9c6.6-0.3,12.5-1.3,17.6-3.2v-24.5H882.4z">
                    </path>
                </defs>
                <clipPath id="SVGID_00000155125297417547696630000012021092584963367613_">
                    <use xlink:href="#SVGID_00000127017725355969403450000009838630387592430473_"
                        style="overflow:visible;"></use>
                </clipPath>
                <g style="clip-path:url(#SVGID_00000155125297417547696630000012021092584963367613_);">
                    <path class="st2" d="M811.6,76.8H900v141.5h-88.4V76.8z"></path>
                </g>
            </g>
        </g>
    </g>
    <polygon class="st2" points="515.6,218.5 545.6,105.6 575.3,105.6 545.6,218.5 "></polygon>
    <polygon class="st2" points="575.2,218.5 605.1,105.6 634.9,105.6 605.1,218.5 "></polygon>
</svg>