<svg fill="none" xmlns="http://www.w3.org/2000/svg" width="70" height="36">
    <path
        d="M58.785 24.137 62 23.315l-3.215-.876-.791-3.157-.923 3.157-3.136.876 3.136.822.923 3.21.79-3.21Zm-13.231 7.979.587 2.297.625-2.297 2.256-.564-2.256-.66-.625-2.24-.587 2.24-2.293.66 2.293.564ZM20.51 6.464l.588 2.297.626-2.297 2.255-.565-2.255-.659L21.098 3l-.587 2.24-2.293.66 2.293.564Zm-5.3 14.364.822 3.216.875-3.216 3.157-.79-3.157-.923-.875-3.136-.823 3.136-3.21.923 3.21.79Z"
        fill="#3FB582"></path>
    <path d="M49.213 7.604 50.293 3l1.15 4.604 4.143 1.132-4.144 1.321-1.149 4.491-1.08-4.49L45 8.735l4.213-1.132Z"
        fill="#2FBA79"></path>
    <path fill-rule="evenodd" clip-rule="evenodd"
        d="M37.398 22.004a6.16 6.16 0 1 1 1.416-12.155A8.999 8.999 0 0 0 26 18a9 9 0 0 0 9.001 8.999c4.972 0 9-4.028 9-9a9.068 9.068 0 0 0-.484-2.924 6.167 6.167 0 0 1-6.118 6.928Z"
        fill="url(#ramadan_svg__a)"></path>
    <defs>
        <radialGradient id="ramadan_svg__a" cx="0" cy="0" r="1" gradientUnits="userSpaceOnUse"
            gradientTransform="rotate(157.62 35.742 9.532) scale(52.2515 76.6566)">
            <stop offset="0.046" stop-color="#131C26"></stop>
            <stop offset="1" stop-color="#3BFF9D"></stop>
        </radialGradient>
    </defs>
</svg>