<?xml version="1.0" encoding="UTF-8"?>
<svg id="Ebene_2" xmlns="http://www.w3.org/2000/svg" viewBox="0 0 168.22 68.82">
    <defs>
        <style>
            .cls-1 {
                fill: none;
                stroke: #000;
                stroke-miterlimit: 10;
                stroke-width: .24px;
            }
        </style>
    </defs>
    <g id="Ebene_1-2">
        <g>
            <path
                d="m87.8,6.52h-38.8c-10.2,0-18.5,8.3-18.5,18.5s8.3,18.5,18.5,18.5,18.5-8.3,18.5-18.5c0-4.4-1.5-8.6-4.4-11.9h-5s1,.9,1.3,1.2c2.9,2.8,4.5,6.6,4.5,10.7,0,8.2-6.7,14.9-14.9,14.9s-14.9-6.7-14.9-14.9,6.7-14.9,14.9-14.9h27.9c-4.6,3.4-7.7,8.8-7.7,14.9,0,10.2,8.3,18.5,18.5,18.5.5,0,1.4-.1,1.4-.1l.6-3.5h-2c-8.2,0-14.9-6.7-14.9-14.9s6.7-14.9,14.9-14.9c1,0,1.8-.8,1.8-1.8,0-1-.8-1.8-1.7-1.8" />
            <path
                d="m15.2,25.52c5.4,0,9.3-2.8,9.3-7.4v-.1c0-4.4-3.4-7.1-9.3-7.1H4.1v14.6h11.1ZM0,7.02h15.6c4.4,0,8,1.3,10.3,3.6,1.8,1.8,2.8,4.3,2.8,7.1v.1c0,6-4.1,9.5-9.8,10.6l11.1,14.8h-5l-10.5-14.1H4.1v14.1H0V7.02Z" />
        </g>
        <polygon points="108.9 7.02 113 7.02 113 39.42 133.3 39.42 133.3 43.22 108.9 43.22 108.9 7.02" />
        <polygon
            points="137.3 7.02 163.3 7.02 163.3 10.82 141.4 10.82 141.4 23.72 161 23.72 161 27.42 141.4 27.42 141.4 43.22 137.3 43.22 137.3 7.02" />
        <path
            d="m105.7,25.12v-.1c0-8.7-5.6-16.4-14.4-18.2v4c6.1,1.8,10.2,7.6,10.2,14.4v.1c0,6.8-4.1,12.5-10.2,14.3v3.9c8.8-2,14.4-9.7,14.4-18.4" />
        <path
            d="m165.6,2.72c.4,0,.7-.2.7-.6h0c0-.3-.3-.5-.7-.5h-.8v1.1h.8Zm-1.1-1.4h1.2c.3,0,.6.1.8.3.1.1.2.3.2.5h0c0,.4-.3.7-.7.8l.8,1.1h-.4l-.8-1.1h-.8v1.1h-.3V1.32Z" />
        <circle class="cls-1" cx="165.5" cy="2.72" r="2.6" />
        <path
            d="m42.2,67.12c0,.3,0,.8-.1,1.6h-1.6l-7.6-.1c-.2,0-.3-.1-.3-.2s.2-.1.5-.2c.5,0,.7-.1.8-.2.1-.1.1-.3.1-.7v-10.2c0-.5,0-.7-.1-.8-.1-.1-.4-.1-1-.1-.2,0-.3-.1-.3-.2s.1-.2.2-.2h.2c.4,0,1.2.1,2.4.1h1.6c.2,0,.3.1.3.2s0,.1-.1.1h-.6c-.4,0-.6.1-.6.2-.1.1-.1.4-.1,1v10.8h1.4c1.4,0,2.4-.1,3-.2.6-.1,1-.4,1.2-.8.2-.4.3-.9.4-1.6,0-.2.1-.2.2-.2.2,0,.2.1.2.3v1.4h-.1Z" />
        <path
            d="m56.8,68.42c0,.1-.1.2-.2.2h-.2c-.1,0-.9-.1-2.5-.1h-1.6c-.2,0-.2-.1-.2-.2s.2-.2.5-.2c.5,0,.8-.1.9-.2.1-.1.1-.5.1-1.1v-9.6c0-.6,0-.9-.1-1s-.4-.2-1-.2c-.2,0-.4-.1-.4-.1,0-.1.1-.1.2-.1h4.3c.2,0,.3.1.3.2s-.3.1-.8.2c-.3,0-.5.1-.6.2s-.1.4-.1.8v9.7c0,.7,0,1.1.1,1.1.1.1.5.2,1.2.2,0,0,.1.1.1.2" />
        <path
            d="m78.3,56.02c0,.1-.1.2-.3.2-.5,0-.9.1-1.1.2s-.4.5-.6,1l-.6,1.7c-1.5,4.1-2.5,7.3-3.2,9.5,0,.1-.1.2-.2.2s-.3-.5-.6-1.4c-.5-1.7-1-2.9-1.3-3.8-.3-.9-.8-2.3-1.4-4.1l-.9-2.5c-.1-.3-.3-.6-.4-.7s-.4-.2-.7-.2h-.7c-.1,0-.1-.1-.1-.1,0-.1.1-.2.4-.2h5.2c.2,0,.3.1.3.2s-.2.2-.7.2h-1.1c-.3,0-.4.1-.4.2v.2l.1.5c0,.1.6,1.8,1.8,5.1.2.6.6,1.7,1.1,3.3,2-5.7,3-8.7,3-9s-.3-.4-.9-.4h-.6c-.1,0-.2-.1-.2-.2s.2-.2.5-.2h.6c.3,0,.6.1.7.1h.6l1.2-.1c.4.1.5.2.5.3" />
        <path
            d="m92.3,68.42c0,.1-.1.2-.2.2h-.2c-.1,0-.9-.1-2.5-.1h-1.6c-.2,0-.2-.1-.2-.2s.2-.2.5-.2c.5,0,.8-.1.9-.2.1-.1.1-.5.1-1.1v-9.6c0-.6,0-.9-.1-1s-.4-.2-1-.2c-.2,0-.4-.1-.4-.1,0-.1.1-.1.2-.1h4.3c.2,0,.3.1.3.2s-.3.1-.8.2c-.3,0-.5.1-.6.2s-.1.4-.1.8v9.7c0,.7,0,1.1.1,1.1.1.1.5.2,1.2.2,0,0,.1.1.1.2" />
        <path
            d="m113.6,56.12c0,.1-.2.2-.5.2h-.7c-.2,0-.3,0-.3.1s-.1.3-.1.6v11.6c0,.1,0,.2-.1.2s-.2-.1-.3-.2l-2.3-3.4c-1.4-2-3-4.5-4.9-7.5v10.2c0,.2.1.3.3.3s.6.1,1.2.1q.2,0,.2.1c0,.1-.2.2-.5.2-.1,0-.5,0-1-.1h-2.1c-.3,0-.4-.1-.4-.2s.1-.2.4-.2c.7,0,1.1-.1,1.2-.1.1-.1.2-.3.2-.8v-9c0-1-.2-1.6-.6-1.9-.2-.1-.5-.2-1-.2-.3,0-.5-.1-.5-.2s.1-.2.3-.2h2c.4,0,.8,0,1.2-.1l6.3,9.4v-8.8c0-.1-.1-.1-.1-.2-.1,0-.4-.1-.9-.1-.4,0-.7-.1-.7-.2s.1-.2.4-.2h2.8c.4.4.5.4.5.6" />
        <path
            d="m135.5,64.72c0,.1-.1.1-.2.1h-.4c-.6,0-.9.1-.9.3,0,.1-.1.7-.1,1.6v.6c-.6.5-1.2.9-1.8,1.1-.6.2-1.3.3-2.1.3-1.9,0-3.4-.6-4.6-1.7-1.1-1.1-1.7-2.7-1.7-4.7s.6-3.6,1.7-4.8c1.1-1.2,2.6-1.8,4.4-1.8.8,0,1.7.2,2.6.7.3.1.5.2.7.2s.4-.1.5-.4c.1-.2.1-.3.2-.3s.1,0,.1.1v.4c-.1.7-.1,1.2-.1,1.5v1.8c0,.3-.1.4-.2.4s-.2-.1-.2-.3c-.1-1.2-.4-2.1-1-2.8-.6-.7-1.4-1-2.4-1-1.3,0-2.3.6-3,1.7s-1.1,2.7-1.1,4.6.4,3.4,1.1,4.5c.7,1.1,1.8,1.7,3,1.7,1,0,1.6-.3,2-.8.2-.3.3-.8.3-1.5,0-.6-.1-1-.2-1.1-.1-.1-.5-.2-1.2-.1h-.3l-.1-.1c0-.1.1-.2.4-.2h4.2c.3-.1.4-.1.4,0" />
    </g>
</svg>