<svg width="91" height="91" viewBox="0 0 91 91" fill="none" xmlns="http://www.w3.org/2000/svg">
    <path
        d="M72.5857 18.4044C72.4801 18.2987 72.3548 18.2149 72.2168 18.1578C72.0788 18.1006 71.9309 18.0711 71.7815 18.0711C71.6321 18.0711 71.4842 18.1006 71.3462 18.1578C71.2082 18.2149 71.0828 18.2987 70.9772 18.4044L61.0589 28.3227L45.4564 24.9512C45.2705 24.9107 45.0774 24.9176 44.8949 24.9713C44.7124 25.0251 44.5464 25.1239 44.4122 25.2587L18.4141 51.2559C18.3084 51.3615 18.2246 51.4869 18.1674 51.6249C18.1102 51.7629 18.0808 51.9108 18.0808 52.0602C18.0808 52.2096 18.1102 52.3575 18.1674 52.4955C18.2246 52.6335 18.3084 52.7588 18.4141 52.8644L38.1453 72.5956C38.2509 72.7013 38.3763 72.7851 38.5142 72.8423C38.6522 72.8994 38.8002 72.9289 38.9495 72.9289C39.0989 72.9289 39.2468 72.8994 39.3848 72.8423C39.5228 72.7851 39.6482 72.7013 39.7538 72.5956L65.751 46.5984C65.8856 46.464 65.9843 46.298 66.038 46.1155C66.0917 45.9331 66.0988 45.7401 66.0584 45.5542L62.68 29.9186L72.5857 20.0129C72.6914 19.9073 72.7752 19.7819 72.8324 19.6439C72.8896 19.5059 72.919 19.358 72.919 19.2086C72.919 19.0593 72.8896 18.9114 72.8324 18.7734C72.7752 18.6354 72.6914 18.51 72.5857 18.4044ZM63.7043 45.428L38.9495 70.1828L20.8268 52.0602L45.5826 27.3054L59.1451 30.2366L54.6212 34.7604C54.4178 34.9657 54.301 35.2412 54.2947 35.5301C53.1627 34.6971 51.7576 34.3228 50.3612 34.4824C48.9648 34.6419 47.6804 35.3235 46.7656 36.3905C45.8507 37.4575 45.3731 38.8309 45.4285 40.2353C45.4839 41.6396 46.0682 42.9712 47.0642 43.9628C48.0603 44.9543 49.3944 45.5327 50.799 45.5818C52.2036 45.6309 53.5749 45.1471 54.6377 44.2275C55.7006 43.3079 56.3764 42.0204 56.5298 40.6233C56.6831 39.2262 56.3025 37.8228 55.4644 36.6946C55.7517 36.6876 56.0255 36.5711 56.2297 36.3689L60.7662 31.8324L63.7043 45.428ZM54.288 40C54.2892 40.4308 54.2049 40.8575 54.04 41.2555C53.8751 41.6535 53.6328 42.0148 53.3273 42.3186C52.7029 42.9149 51.8727 43.2477 51.0092 43.2477C50.1458 43.2477 49.3155 42.9149 48.6911 42.3186C48.31 41.9373 48.0288 41.468 47.8724 40.9521C47.716 40.4362 47.6892 39.8898 47.7944 39.3611C47.8996 38.8324 48.1336 38.3378 48.4756 37.9211C48.8176 37.5044 49.257 37.1785 49.755 36.9722C50.253 36.7659 50.7942 36.6856 51.3307 36.7384C51.8672 36.7912 52.3823 36.9754 52.8306 37.2748C53.2788 37.5742 53.6463 37.9796 53.9006 38.4549C54.1548 38.9303 54.2878 39.461 54.288 40Z"
        fill="#bb976d"></path>
</svg>