<svg xmlns="http://www.w3.org/2000/svg" viewBox="0 0 148.74 59.97">
    <defs>
        <style>
            .cls-1 {
                fill: #FFFFFF;
            }
        </style>
    </defs>
    <title>tidelli-logo</title>
    <g id="Layer_2" data-name="Layer 2">
        <g id="Layer_1-2" data-name="Layer 1">
            <path class="cls-1"
                d="M14.5,60V58.48l.34,0c.62,0,1.24,0,1.87,0s1.07-.14,1.6-.23a1.68,1.68,0,0,0,.38-.12,1.19,1.19,0,0,0,.83-1.25c0-2.86-.05-35.7-.07-35.87a.52.52,0,0,0-.52-.56,2.3,2.3,0,0,0-.37,0c-2.64,0-5.28,0-7.92,0a14.93,14.93,0,0,0-3.82.48,4.93,4.93,0,0,0-1.67.79c-.38.29-.76.57-1.13.87a4.07,4.07,0,0,0-1.4,2c-.25.82-.44,1.65-.65,2.48l-.07.26c-.63,0-1.26,0-1.9,0C.3,24.19.43,21.1.67,18h44a2,2,0,0,1,.06.23c.06.85.11,1.7.17,2.55.1,1.54.21,3.08.31,4.62,0,.62.08,1.24.11,1.89a5.49,5.49,0,0,1-.9,0h-.93c-.07-.25-.12-.5-.19-.75-.13-.52-.26-1-.4-1.57A4.87,4.87,0,0,0,41,22.22l-.42-.32a6.15,6.15,0,0,0-3-1.27,17.57,17.57,0,0,0-3-.25l-7.8,0c-.79,0-.91.12-.91.92,0,3.24,0,26.88,0,35.47a1.27,1.27,0,0,0,.9,1.34,4.91,4.91,0,0,0,1.26.29c.76,0,1.54,0,2.31,0h.52c0,.52,0,1,0,1.51Z" />
            <path class="cls-1"
                d="M84.38,0c0,.15,0,39,0,39.2.06.45.24.62.69.64s.94,0,1.42,0H87v1.36l-2.58.13c-.85,0-1.7.1-2.55.18s-1.72.2-2.6.3c-.08-.35,0-3.9,0-4.33a3.84,3.84,0,0,0-.3.25,14,14,0,0,1-7.71,4,15.19,15.19,0,0,1-3.56.21,14.85,14.85,0,0,1-8.4-3,11.23,11.23,0,0,1-4.43-7.71,12.42,12.42,0,0,1,.74-6.3,11.4,11.4,0,0,1,4.75-5.55,14.53,14.53,0,0,1,5.77-2.05,15.38,15.38,0,0,1,7.4.75,13.61,13.61,0,0,1,5.19,3.31l.34.32c0-.18,0-.28,0-.38,0-.54,0-18.45,0-18.6A.8.8,0,0,0,78.44,2a2.61,2.61,0,0,0-.56-.08,3.3,3.3,0,0,0-.45,0,10.28,10.28,0,0,1,0-1.24l.3-.05c2-.09,4-.28,5.94-.5A1.34,1.34,0,0,0,83.81,0Zm-5.2,29.84v-4.1a5.16,5.16,0,0,0-.54-2.31,6.38,6.38,0,0,0-1.55-2,11.43,11.43,0,0,0-8.68-2.91,7.68,7.68,0,0,0-3.86,1.38,9.46,9.46,0,0,0-3.34,4.31,14.24,14.24,0,0,0-1,6.52A14.58,14.58,0,0,0,61,34.4a10,10,0,0,0,2.94,4.41,7.75,7.75,0,0,0,4.39,1.82,11.83,11.83,0,0,0,4.31-.4,11.48,11.48,0,0,0,5.14-3,4.67,4.67,0,0,0,1.45-3.54C79.16,32.42,79.18,31.13,79.18,29.84Z" />
            <path class="cls-1"
                d="M133.38,0c0,.18,0,.35,0,.53,0,12.69,0,38.45,0,38.64,0,.47.22.65.69.67H136c0,.25,0,.48,0,.7v.64c-.32.08-10,.1-10.54,0,0-.43,0-.87,0-1.33l.35,0h1.34l.41,0a.61.61,0,0,0,.55-.64c0-.2,0-36.31-.07-36.61a.73.73,0,0,0-.81-.72c-.26,0-.51,0-.81,0a10.13,10.13,0,0,1,0-1.23l.22,0c.59,0,1.19,0,1.78-.09,1.06-.08,2.11-.18,3.16-.28.37,0,.75-.08,1.13-.13A1.19,1.19,0,0,0,132.9,0Z" />
            <path class="cls-1"
                d="M120.54,0c0,.15,0,.3,0,.45,0,12.71,0,38.6,0,38.83s.2.53.58.55.84,0,1.26,0h.74v1.32l0,0,0,0-.2,0H112.84a.54.54,0,0,1-.16,0c0-.42,0-.86,0-1.33l.43,0h1.34a1.61,1.61,0,0,0,.44-.06.58.58,0,0,0,.41-.59c0-.19,0-36.39-.08-36.68a.69.69,0,0,0-.78-.66c-.27,0-.54,0-.82,0a10.12,10.12,0,0,1,0-1.23l.33,0A48.07,48.07,0,0,0,118.83.2l1-.12a1.38,1.38,0,0,0,.27-.08Z" />
            <path class="cls-1"
                d="M148.74,41.2a3.15,3.15,0,0,1-.43,0h-9.75l-.42,0V39.89a1.54,1.54,0,0,1,.3,0h1.34c.15,0,.3,0,.45,0a.62.62,0,0,0,.54-.65c0-.18,0-.36,0-.53q0-9.07,0-18.16a5.83,5.83,0,0,0-.06-.84.76.76,0,0,0-.83-.73h-.82V17.67c.77,0,1.54-.06,2.3-.12s1.56-.14,2.34-.22l2.34-.25c0,.18,0,.34,0,.5v21c0,.17,0,.35,0,.53,0,.5.21.67.71.69h1.55a3.15,3.15,0,0,1,.43,0Z" />
            <path class="cls-1"
                d="M110.38,34.72h1.92l-.13.31a12.19,12.19,0,0,1-5,5.27A13.92,13.92,0,0,1,101.81,42a15.68,15.68,0,0,1-9.25-1.66,12.05,12.05,0,0,1-5.5-5.67,11.91,11.91,0,0,1,1-11.64,12.45,12.45,0,0,1,5.3-4.36,16.51,16.51,0,0,1,11.92-.53,12,12,0,0,1,6.19,4.65,11.34,11.34,0,0,1,1.73,4.52,1.62,1.62,0,0,1,0,.31c-.13.14-.29.09-.43.09h-21l-.54,0a4.46,4.46,0,0,0-.08.46,14.37,14.37,0,0,0,1.11,7.46A9.74,9.74,0,0,0,94.61,39a7.75,7.75,0,0,0,4.75,2.06,13.73,13.73,0,0,0,6.09-.87,7.83,7.83,0,0,0,4-3.5c.3-.52.53-1.07.79-1.6C110.28,35,110.33,34.84,110.38,34.72Zm-1.77-8.31c-.07-.29-.11-.53-.17-.76A11.45,11.45,0,0,0,106.35,21a7.32,7.32,0,0,0-7.79-2.77,8.25,8.25,0,0,0-5.31,3.85,14.11,14.11,0,0,0-1.72,4.06,1.9,1.9,0,0,0,0,.25Z" />
            <path class="cls-1"
                d="M46.3,18.91V17.65a62.62,62.62,0,0,0,7-.58c0,.18,0,16.39,0,21.51a4.7,4.7,0,0,0,0,.53c.07.59.21.72.8.73h1.8a12.35,12.35,0,0,1,0,1.34c-.36.08-10.1.09-10.53,0V39.87c.12,0,1.9,0,2,0a.63.63,0,0,0,.58-.7c0-2.47,0-15,0-18.77a4.08,4.08,0,0,0-.08-.85.68.68,0,0,0-.72-.59h-.9Z" />
            <path class="cls-1"
                d="M64.48,59.42c0-1.43,0-2.86,0-4.28s-.11-2.83-.24-4.27l-.31,0-2.32.63a1.71,1.71,0,0,1-.55.05.53.53,0,0,1-.53-.43.56.56,0,0,1,.25-.64,3.87,3.87,0,0,1,.88-.39c.37-.12.76-.17,1.15-.26,1.23-.27,2.45-.56,3.68-.81a22.27,22.27,0,0,1,4.15-.47c.14,0,.27,0,.45,0v.88l.31,0a10.54,10.54,0,0,1,2.51,0,4.11,4.11,0,0,1,2.46,1,3.22,3.22,0,0,1,1.25,2.74,3.94,3.94,0,0,1-.28,1.22,8.53,8.53,0,0,1-4.81,4.85,3.43,3.43,0,0,1-1.23.26h-.19C71,58,71,56.63,70.86,55.21s-.2-2.8-.3-4.23l-.29.07a2,2,0,0,1-.48.05.29.29,0,0,1-.28-.4.89.89,0,0,1,.32-.55c.2-.14.41-.27.62-.4a1.74,1.74,0,0,0,.3-.2,12.8,12.8,0,0,0-2.69.36,26.38,26.38,0,0,0-2.65.68c.06.85.1,1.64.15,2.44l0,.32c0,1.75.06,3.49.11,5.24,0,.8-.35,1-1,.89Zm7.73-1a2.53,2.53,0,0,0,1.11-.49,9,9,0,0,0,2.45-2.73,5.74,5.74,0,0,0,.77-1.82A2,2,0,0,0,76,51.47a3.62,3.62,0,0,0-.83-.64,4.67,4.67,0,0,0-2.91-.52,3.47,3.47,0,0,0-.51.13c.08,2.64.14,5.23.36,7.82A.79.79,0,0,0,72.21,58.42Z" />
            <path class="cls-1"
                d="M146.67,57.09l-.88.91a6.26,6.26,0,0,1-1.54,1.1,4.16,4.16,0,0,1-2.33.4,2.17,2.17,0,0,1-2-2,7.06,7.06,0,0,1,.14-2.82,15.62,15.62,0,0,1,1.26-3.63,5.31,5.31,0,0,1,.93-1.33,1.71,1.71,0,0,1,1.35-.55,1,1,0,0,1,.93.71.5.5,0,0,1-.08.5.71.71,0,0,1-.93.16.35.35,0,0,0-.51,0,3.87,3.87,0,0,0-.53.61,8.89,8.89,0,0,0-1,2.34A10.82,10.82,0,0,0,141,56a3.93,3.93,0,0,0,.12,1.41,1.18,1.18,0,0,0,1.33.92,5.06,5.06,0,0,0,3.43-1.81,1.85,1.85,0,0,0,.29-2.12c-.17-.38-.28-.45-.68-.44a1.82,1.82,0,0,0-.82.21,4.25,4.25,0,0,0-1.31,1.07l-.27.34a.74.74,0,0,1-.82-.26c-.18-.29,0-.57.14-.83a2.35,2.35,0,0,1,.3-.33,6.07,6.07,0,0,1,2.71-1.4,1.45,1.45,0,0,1,1.59.64,3.34,3.34,0,0,1,.5,1.24c.26,1.08.48,2.16.73,3.25a1,1,0,0,1-.32.87.32.32,0,0,1-.44.06.84.84,0,0,1-.32-.3,7.5,7.5,0,0,1-.32-.83C146.75,57.5,146.72,57.33,146.67,57.09Z" />
            <path class="cls-1"
                d="M132.34,54.3c0,.08-.05.11-.05.15,0,1.3,0,2.6.05,3.89,0,.26,0,.52,0,.77s0,.36-.34.39h-.2c-.42,0-.67-.15-.66-.66,0-2,0-4,0-6a1.33,1.33,0,0,0-.22-.8,1.09,1.09,0,0,1,.1-1.39,2.22,2.22,0,0,1,.56-.45.62.62,0,0,1,1,.5,5.36,5.36,0,0,1,0,.8c0,.21-.06.41-.05.61a1,1,0,0,0,.15.49c.54.92,1.09,1.84,1.67,2.74.39.61.84,1.19,1.28,1.77a3.76,3.76,0,0,0,1.11,1,2.22,2.22,0,0,0,.25.11c0-.16,0-.27,0-.39L136.86,51c0-.36,0-.73-.05-1.09a.48.48,0,0,1,.35-.53,1.76,1.76,0,0,1,.91-.15,3.52,3.52,0,0,1,0,.46,29.92,29.92,0,0,0-.12,5.27c.05.9.19,1.8.27,2.7a9.14,9.14,0,0,1,0,1.17.66.66,0,0,1-.79.71,1.84,1.84,0,0,1-1-.34,8.46,8.46,0,0,1-1.77-1.61,18.91,18.91,0,0,1-2.22-3.09A1.58,1.58,0,0,0,132.34,54.3Z" />
            <path class="cls-1"
                d="M96.51,55.34l.39.27a23.94,23.94,0,0,1,2.63,2,8.18,8.18,0,0,1,.69.75,1.06,1.06,0,0,1,.18.35.45.45,0,0,1-.17.54c-.18.14-.28.16-.51,0-.6-.46-1.2-.92-1.78-1.4a10.31,10.31,0,0,0-3.31-1.86l-.26-.07a1.14,1.14,0,0,0,0,.25c.05.72.11,1.45.16,2.18a4,4,0,0,1,0,.49.69.69,0,0,1-1,.49.41.41,0,0,1-.21-.37c0-.27,0-.54,0-.81l-.21-4.34c0-.59,0-1.19-.08-1.78a1,1,0,0,1,.17-.65,4.88,4.88,0,0,1,3.22-2.21,2.86,2.86,0,0,1,1,0,1.83,1.83,0,0,1,1.53,1.79,3.89,3.89,0,0,1-.68,2.65,9.18,9.18,0,0,1-1.42,1.56A3.4,3.4,0,0,1,96.51,55.34Zm-2.19-.2.78-.37a6.17,6.17,0,0,0,2-1.46,3.08,3.08,0,0,0,.85-1.76,1,1,0,0,0-1.11-1.27,2,2,0,0,0-1.33.51c-.35.29-.66.64-1,1a.67.67,0,0,0-.21.55c0,.8,0,1.6,0,2.4C94.29,54.82,94.31,55,94.32,55.14Z" />
            <path class="cls-1"
                d="M91.44,52.9a11.56,11.56,0,0,1-.88,4.36,4.52,4.52,0,0,1-1.1,1.64,2.06,2.06,0,0,1-1.58.6,1.55,1.55,0,0,1-1-.46A2.89,2.89,0,0,1,86.26,58,6.5,6.5,0,0,1,85.87,56a10.28,10.28,0,0,1,.56-4.19,5.53,5.53,0,0,1,1-1.75,2.64,2.64,0,0,1,1.3-.87,1.58,1.58,0,0,1,1.75.52,3.6,3.6,0,0,1,.78,1.76C91.36,52,91.4,52.58,91.44,52.9Zm-2.32-2.57a1.22,1.22,0,0,0-.82.52,5.6,5.6,0,0,0-.57,1,9.76,9.76,0,0,0-.67,4.69,3,3,0,0,0,.37,1.2.77.77,0,0,0,1.31.23l.18-.16a3.45,3.45,0,0,0,.68-1.05,9,9,0,0,0,.63-4.25,4.53,4.53,0,0,0-.22-1A1.74,1.74,0,0,0,89.12,50.33Z" />
            <path class="cls-1"
                d="M84.46,53.14a10.54,10.54,0,0,1-.83,4.07A4.45,4.45,0,0,1,82.39,59,2,2,0,0,1,81,59.5a1.55,1.55,0,0,1-1.16-.57,3.52,3.52,0,0,1-.65-1.26,7.88,7.88,0,0,1-.31-2,10.34,10.34,0,0,1,.63-3.9,5.15,5.15,0,0,1,1.25-1.93,2.48,2.48,0,0,1,1.09-.59,1.55,1.55,0,0,1,1.54.41,2.92,2.92,0,0,1,.72,1.21A7,7,0,0,1,84.46,53.14Zm-2.29-2.81a1.37,1.37,0,0,0-.92.64,4.68,4.68,0,0,0-.68,1.38,10.19,10.19,0,0,0-.49,3.83,4.51,4.51,0,0,0,.23,1.15,2.18,2.18,0,0,0,.38.66.56.56,0,0,0,.7.17,2.16,2.16,0,0,0,.59-.41,3.59,3.59,0,0,0,.79-1.31,9.14,9.14,0,0,0,.54-3.63A4.23,4.23,0,0,0,83,51.28,1.7,1.7,0,0,0,82.17,50.33Z" />
            <path class="cls-1"
                d="M51.27,53.14a11.78,11.78,0,0,1-.89,4.11A4.44,4.44,0,0,1,49.19,59a2,2,0,0,1-1.41.54,1.53,1.53,0,0,1-1.16-.56A3.37,3.37,0,0,1,46,57.65a8.11,8.11,0,0,1-.31-2.49,10.34,10.34,0,0,1,.56-3.26,5.39,5.39,0,0,1,1.3-2.08,2.44,2.44,0,0,1,1.12-.62,1.59,1.59,0,0,1,1.59.48A3.32,3.32,0,0,1,51,51.41C51.15,52,51.19,52.56,51.27,53.14Zm-2.33-2.81a1.39,1.39,0,0,0-.91.61,4.57,4.57,0,0,0-.65,1.26,10.39,10.39,0,0,0-.55,3.91,3.93,3.93,0,0,0,.25,1.27,2.3,2.3,0,0,0,.35.58.55.55,0,0,0,.72.19,2,2,0,0,0,.6-.4,3.54,3.54,0,0,0,.79-1.35,9.59,9.59,0,0,0,.54-2.74,5.82,5.82,0,0,0-.23-2.12A2,2,0,0,0,48.94,50.33Z" />
            <path class="cls-1"
                d="M126.63,49.29l-.11.16a14.45,14.45,0,0,0-2.34,4.2c-.49,1.33-1,2.67-1.45,4-.19.52-.42,1-.64,1.54,0,.1-.1.19-.14.27a.56.56,0,0,1-.53-.2,5.13,5.13,0,0,1-.56-.74,6.6,6.6,0,0,1-.67-1.78c-.5-2.06-1-4.13-1.32-6.23,0-.18-.05-.37-.07-.56a.42.42,0,0,1,.23-.47.39.39,0,0,1,.51.1,2,2,0,0,1,.51,1c.2.87.38,1.74.57,2.62.22,1,.43,2.06.66,3.09a5.32,5.32,0,0,0,.26.73c.2-.08.22-.24.27-.37.27-.72.52-1.45.79-2.17.37-1,.74-2.06,1.14-3.08a6.16,6.16,0,0,1,.93-1.66c.09-.12.19-.23.29-.34A1.2,1.2,0,0,1,126.63,49.29Z" />
            <path class="cls-1"
                d="M53.79,50.36c0,.43.08.86.08,1.29,0,.82,0,1.65,0,2.47a19.4,19.4,0,0,0,.15,2,3.77,3.77,0,0,0,.65,1.73.72.72,0,0,0,1,.3,1.72,1.72,0,0,0,.72-.56,4.74,4.74,0,0,0,.8-1.46,11.81,11.81,0,0,0,.73-3.48c0-.39,0-.78.05-1.17a3.57,3.57,0,0,0,0-.47c-.05,0-.08,0-.1,0-.38.16-.54.09-.65-.3-.17-.61.2-1.6.9-1.68a1.34,1.34,0,0,1,.69.8,4.25,4.25,0,0,1,.33,1.45,12.33,12.33,0,0,1-1.29,6.08,4.85,4.85,0,0,1-1.15,1.51,2.24,2.24,0,0,1-1.63.61,1,1,0,0,1-.63-.23,3.51,3.51,0,0,1-1-1.15,7,7,0,0,1-.67-2.53,24.83,24.83,0,0,1,0-3.45,7.94,7.94,0,0,0,0-1.09.49.49,0,0,1,.3-.56A1,1,0,0,1,53.79,50.36Z" />
            <path class="cls-1"
                d="M142.94,10a4.52,4.52,0,0,1,2.4.61,2.68,2.68,0,0,1,.69.61,1.36,1.36,0,0,1-.05,1.82,2.61,2.61,0,0,1-.94.7,4.76,4.76,0,0,1-4.15-.05,2.88,2.88,0,0,1-.76-.53,1.45,1.45,0,0,1,0-2.16,3.43,3.43,0,0,1,2-.91A7.26,7.26,0,0,1,142.94,10Z" />
            <path class="cls-1"
                d="M50.07,10a4.58,4.58,0,0,1,2.25.51,3.37,3.37,0,0,1,.75.55,1.42,1.42,0,0,1,0,2,3.21,3.21,0,0,1-1.41.85,4.83,4.83,0,0,1-3.45-.17,3.55,3.55,0,0,1-.94-.64,1.41,1.41,0,0,1,0-2.12,3.51,3.51,0,0,1,2-.93A7.35,7.35,0,0,1,50.07,10Z" />
            <path class="cls-1"
                d="M108.63,58.22a4.56,4.56,0,0,0,.47-.08l3.37-1c.36-.11.72-.23,1.08-.33a1.39,1.39,0,0,1,.4-.06c.51,0,.66.22.52.77-.2.09-.41.19-.64.28a46.55,46.55,0,0,1-5.3,1.67,3.11,3.11,0,0,1-.44.06.63.63,0,0,1-.69-.59,39.35,39.35,0,0,1-.37-5.09c0-1.47,0-3-.06-4.42v-.26a1.24,1.24,0,0,1,1,.11.51.51,0,0,1,.28.5c0,.33,0,.65,0,1a14.15,14.15,0,0,0,0,2.52c.11,1.59.25,3.18.38,4.77A2.19,2.19,0,0,0,108.63,58.22Z" />
            <path class="cls-1"
                d="M128,49.15l.84.06a1.81,1.81,0,0,1,0,.29c0,1.28.05,2.55.07,3.82a32.07,32.07,0,0,0,.48,5.44s0,.08,0,.12c0,.23,0,.46-.23.56a.64.64,0,0,1-.72-.08,1.48,1.48,0,0,1-.31-.47,3,3,0,0,1-.16-.66,7.45,7.45,0,0,1-.08-1.06c0-1.7-.07-3.4-.08-5.11,0-.78,0-1.56.07-2.35C128,49.54,128,49.37,128,49.15Z" />
            <path class="cls-1"
                d="M116,49.15l.88.07c0,.63.06,1.23.07,1.82s0,1.27,0,1.9a33.89,33.89,0,0,0,.47,5.78c0,.05,0,.1,0,.16,0,.32,0,.49-.25.58a.72.72,0,0,1-.75-.14,1.43,1.43,0,0,1-.37-.85c-.07-.61-.14-1.23-.15-1.85,0-2.14,0-4.28,0-6.41C115.94,49.87,116,49.54,116,49.15Z" />
        </g>
    </g>
</svg>