<svg width="74" height="74" viewBox="0 0 74 74" fill="none" xmlns="http://www.w3.org/2000/svg">
    <mask id="path-1-outside-1_1:9200" maskUnits="userSpaceOnUse" x="5.65967" y="5.64541" width="62" height="62"
        fill="#bb976d">
        <rect fill="white" x="5.65967" y="5.64541" width="62" height="62"></rect>
        <path
            d="M29.3688 6.65998C29.2053 6.69529 29.0586 6.78496 28.9526 6.91435L17.4826 20.6275C17.3882 20.7359 17.3275 20.8694 17.3078 21.0117C17.2881 21.1541 17.3102 21.2991 17.3715 21.429C17.4328 21.559 17.5306 21.6683 17.653 21.7436C17.7754 21.8189 17.917 21.857 18.0607 21.8531H34.4332L36.4913 24.9287C36.546 25.0092 36.6159 25.0781 36.6972 25.1316C36.7785 25.185 36.8696 25.2219 36.9651 25.2401C37.0607 25.2584 37.1589 25.2576 37.2542 25.2379C37.3494 25.2182 37.4399 25.18 37.5204 25.1253C37.6008 25.0706 37.6698 25.0007 37.7232 24.9194C37.7766 24.8381 37.8135 24.747 37.8318 24.6515C37.85 24.5559 37.8493 24.4577 37.8296 24.3624C37.8099 24.2672 37.7716 24.1767 37.7169 24.0962L36.2138 21.8531H41.0007C41.1443 21.857 41.286 21.8189 41.4084 21.7436C41.5307 21.6683 41.6286 21.559 41.6899 21.429C41.7512 21.2991 41.7733 21.1541 41.7536 21.0117C41.7339 20.8694 41.6731 20.7359 41.5788 20.6275L30.0857 6.91435C30.0004 6.81104 29.8887 6.73282 29.7624 6.68802C29.6362 6.64322 29.5001 6.63353 29.3688 6.65998ZM29.5307 8.5331L39.4282 20.3731H19.6101L29.5307 8.5331ZM51.0369 23.8419C42.0528 23.8419 34.7107 30.84 34.7107 39.4975C34.7107 43.1397 36.0081 46.4859 38.1794 49.1406C38.2402 49.2166 38.3153 49.2798 38.4004 49.3267C38.4856 49.3736 38.5792 49.4033 38.6758 49.4141C38.7725 49.4248 38.8703 49.4164 38.9637 49.3894C39.0571 49.3623 39.1442 49.3171 39.2202 49.2564C39.2961 49.1956 39.3593 49.1205 39.4062 49.0353C39.4531 48.9502 39.4828 48.8566 39.4935 48.7599C39.5043 48.6633 39.4958 48.5655 39.4687 48.4721C39.4417 48.3787 39.3964 48.2915 39.3357 48.2156C37.3678 45.8096 36.1907 42.7885 36.1907 39.4975C36.1907 31.6749 42.819 25.3219 51.0369 25.3219C59.2548 25.3219 65.8601 31.6749 65.8601 39.4975C65.8601 47.1 59.6023 53.3057 51.7076 53.65V44.0762L56.2632 39.7287C56.3765 39.6215 56.4531 39.4812 56.4819 39.3278C56.5107 39.1744 56.4904 39.0159 56.4237 38.8748C56.357 38.7337 56.2474 38.6173 56.1106 38.5423C55.9738 38.4672 55.8167 38.4373 55.6619 38.4569C55.4962 38.4748 55.3414 38.5481 55.2226 38.665L51.7076 42.0412V36.5144C51.7113 36.4091 51.6926 36.3043 51.6526 36.2069C51.6126 36.1095 51.5523 36.0218 51.4757 35.9495C51.399 35.8773 51.3079 35.8223 51.2083 35.7881C51.1087 35.7539 51.003 35.7413 50.8982 35.7512C50.7101 35.7688 50.5359 35.8577 50.4112 35.9995C50.2866 36.1414 50.2209 36.3256 50.2276 36.5144V47.2675L45.2557 42.5731C45.1676 42.4819 45.0575 42.4148 44.936 42.3784C44.8145 42.3419 44.6857 42.3373 44.5619 42.365C44.4302 42.396 44.3096 42.4626 44.213 42.5574C44.1165 42.6522 44.0478 42.7716 44.0145 42.9028C43.9811 43.0339 43.9843 43.1716 44.0237 43.3011C44.0632 43.4305 44.1373 43.5466 44.2382 43.6369L50.2276 49.3025V65.86H47.8457C47.7919 65.8541 47.7376 65.8541 47.6838 65.86C47.5866 65.8706 47.4925 65.9002 47.4067 65.9472C47.321 65.9942 47.2453 66.0577 47.1841 66.1339C47.1229 66.2101 47.0773 66.2977 47.0499 66.3915C47.0225 66.4854 47.0139 66.5837 47.0245 66.6809C47.0352 66.7781 47.0648 66.8723 47.1119 66.958C47.1589 67.0437 47.2223 67.1194 47.2986 67.1806C47.3748 67.2418 47.4624 67.2873 47.5563 67.3147C47.6502 67.342 47.7485 67.3506 47.8457 67.34H54.1126C54.2106 67.3414 54.308 67.3232 54.399 67.2867C54.49 67.2501 54.5728 67.1958 54.6426 67.127C54.7125 67.0581 54.7679 66.9761 54.8058 66.8856C54.8436 66.7951 54.8631 66.6981 54.8631 66.6C54.8631 66.5019 54.8436 66.4048 54.8058 66.3144C54.7679 66.2239 54.7125 66.1418 54.6426 66.073C54.5728 66.0041 54.49 65.9498 54.399 65.9133C54.308 65.8767 54.2106 65.8586 54.1126 65.86H51.7076V55.1531C60.3767 54.8084 67.3401 47.9336 67.3401 39.4975C67.3401 30.84 60.0211 23.8419 51.0369 23.8419ZM20.9976 25.0444C20.8104 25.0812 20.6447 25.1889 20.5351 25.345L12.2794 37.0462C12.1978 37.1568 12.1487 37.2879 12.1374 37.4249C12.1262 37.5619 12.1532 37.6993 12.2157 37.8217C12.2781 37.9441 12.3733 38.0468 12.4908 38.1181C12.6083 38.1894 12.7433 38.2267 12.8807 38.2256H30.9644C31.0625 38.227 31.1598 38.2089 31.2508 38.1723C31.3418 38.1357 31.4247 38.0815 31.4945 38.0126C31.5643 37.9438 31.6198 37.8617 31.6576 37.7712C31.6955 37.6808 31.715 37.5837 31.715 37.4856C31.715 37.3875 31.6955 37.2904 31.6576 37.2C31.6198 37.1095 31.5643 37.0275 31.4945 36.9586C31.4247 36.8898 31.3418 36.8355 31.2508 36.7989C31.1598 36.7623 31.0625 36.7442 30.9644 36.7456H14.2913L21.7376 26.2006C21.8231 26.0804 21.8707 25.9373 21.8743 25.7898C21.8779 25.6422 21.8374 25.497 21.7578 25.3727C21.6783 25.2484 21.5634 25.1508 21.4279 25.0922C21.2924 25.0337 21.1426 25.0171 20.9976 25.0444ZM16.7657 41.44C16.5821 41.471 16.4169 41.5701 16.3032 41.7175L6.82193 53.3956C6.7348 53.5045 6.6802 53.6357 6.66442 53.7743C6.64864 53.9128 6.67233 54.053 6.73275 54.1787C6.79317 54.3044 6.88786 54.4104 7.00593 54.4846C7.12399 54.5588 7.26061 54.5982 7.40005 54.5981L28.5826 54.6212V65.86H26.3857C26.3395 65.8556 26.2931 65.8556 26.2469 65.86C26.0507 65.8784 25.8698 65.974 25.744 66.1258C25.6182 66.2776 25.5579 66.4731 25.5763 66.6694C25.5947 66.8656 25.6903 67.0465 25.8421 67.1723C25.9939 67.2981 26.1894 67.3584 26.3857 67.34H32.6526C32.7506 67.3414 32.848 67.3232 32.939 67.2867C33.03 67.2501 33.1128 67.1958 33.1826 67.127C33.2525 67.0581 33.3079 66.9761 33.3458 66.8856C33.3836 66.7951 33.4031 66.6981 33.4031 66.6C33.4031 66.5019 33.3836 66.4048 33.3458 66.3144C33.3079 66.2239 33.2525 66.1418 33.1826 66.073C33.1128 66.0041 33.03 65.9498 32.939 65.9133C32.848 65.8767 32.7506 65.8586 32.6526 65.86H30.0626V54.6212H46.9669C47.065 54.6226 47.1623 54.6045 47.2533 54.5679C47.3443 54.5314 47.4272 54.4771 47.497 54.4082C47.5668 54.3394 47.6223 54.2573 47.6601 54.1669C47.698 54.0764 47.7175 53.9793 47.7175 53.8812C47.7175 53.7832 47.698 53.6861 47.6601 53.5956C47.6223 53.5051 47.5668 53.4231 47.497 53.3542C47.4272 53.2854 47.3443 53.2311 47.2533 53.1945C47.1623 53.158 47.065 53.1398 46.9669 53.1412L8.94943 53.1181L17.4363 42.6656C17.539 42.5516 17.6038 42.4085 17.6216 42.2561C17.6395 42.1037 17.6095 41.9495 17.5358 41.8149C17.4622 41.6802 17.3485 41.5719 17.2105 41.5047C17.0725 41.4375 16.9171 41.4149 16.7657 41.44Z">
        </path>
    </mask>
    <path
        d="M29.3688 6.65998C29.2053 6.69529 29.0586 6.78496 28.9526 6.91435L17.4826 20.6275C17.3882 20.7359 17.3275 20.8694 17.3078 21.0117C17.2881 21.1541 17.3102 21.2991 17.3715 21.429C17.4328 21.559 17.5306 21.6683 17.653 21.7436C17.7754 21.8189 17.917 21.857 18.0607 21.8531H34.4332L36.4913 24.9287C36.546 25.0092 36.6159 25.0781 36.6972 25.1316C36.7785 25.185 36.8696 25.2219 36.9651 25.2401C37.0607 25.2584 37.1589 25.2576 37.2542 25.2379C37.3494 25.2182 37.4399 25.18 37.5204 25.1253C37.6008 25.0706 37.6698 25.0007 37.7232 24.9194C37.7766 24.8381 37.8135 24.747 37.8318 24.6515C37.85 24.5559 37.8493 24.4577 37.8296 24.3624C37.8099 24.2672 37.7716 24.1767 37.7169 24.0962L36.2138 21.8531H41.0007C41.1443 21.857 41.286 21.8189 41.4084 21.7436C41.5307 21.6683 41.6286 21.559 41.6899 21.429C41.7512 21.2991 41.7733 21.1541 41.7536 21.0117C41.7339 20.8694 41.6731 20.7359 41.5788 20.6275L30.0857 6.91435C30.0004 6.81104 29.8887 6.73282 29.7624 6.68802C29.6362 6.64322 29.5001 6.63353 29.3688 6.65998ZM29.5307 8.5331L39.4282 20.3731H19.6101L29.5307 8.5331ZM51.0369 23.8419C42.0528 23.8419 34.7107 30.84 34.7107 39.4975C34.7107 43.1397 36.0081 46.4859 38.1794 49.1406C38.2402 49.2166 38.3153 49.2798 38.4004 49.3267C38.4856 49.3736 38.5792 49.4033 38.6758 49.4141C38.7725 49.4248 38.8703 49.4164 38.9637 49.3894C39.0571 49.3623 39.1442 49.3171 39.2202 49.2564C39.2961 49.1956 39.3593 49.1205 39.4062 49.0353C39.4531 48.9502 39.4828 48.8566 39.4935 48.7599C39.5043 48.6633 39.4958 48.5655 39.4687 48.4721C39.4417 48.3787 39.3964 48.2915 39.3357 48.2156C37.3678 45.8096 36.1907 42.7885 36.1907 39.4975C36.1907 31.6749 42.819 25.3219 51.0369 25.3219C59.2548 25.3219 65.8601 31.6749 65.8601 39.4975C65.8601 47.1 59.6023 53.3057 51.7076 53.65V44.0762L56.2632 39.7287C56.3765 39.6215 56.4531 39.4812 56.4819 39.3278C56.5107 39.1744 56.4904 39.0159 56.4237 38.8748C56.357 38.7337 56.2474 38.6173 56.1106 38.5423C55.9738 38.4672 55.8167 38.4373 55.6619 38.4569C55.4962 38.4748 55.3414 38.5481 55.2226 38.665L51.7076 42.0412V36.5144C51.7113 36.4091 51.6926 36.3043 51.6526 36.2069C51.6126 36.1095 51.5523 36.0218 51.4757 35.9495C51.399 35.8773 51.3079 35.8223 51.2083 35.7881C51.1087 35.7539 51.003 35.7413 50.8982 35.7512C50.7101 35.7688 50.5359 35.8577 50.4112 35.9995C50.2866 36.1414 50.2209 36.3256 50.2276 36.5144V47.2675L45.2557 42.5731C45.1676 42.4819 45.0575 42.4148 44.936 42.3784C44.8145 42.3419 44.6857 42.3373 44.5619 42.365C44.4302 42.396 44.3096 42.4626 44.213 42.5574C44.1165 42.6522 44.0478 42.7716 44.0145 42.9028C43.9811 43.0339 43.9843 43.1716 44.0237 43.3011C44.0632 43.4305 44.1373 43.5466 44.2382 43.6369L50.2276 49.3025V65.86H47.8457C47.7919 65.8541 47.7376 65.8541 47.6838 65.86C47.5866 65.8706 47.4925 65.9002 47.4067 65.9472C47.321 65.9942 47.2453 66.0577 47.1841 66.1339C47.1229 66.2101 47.0773 66.2977 47.0499 66.3915C47.0225 66.4854 47.0139 66.5837 47.0245 66.6809C47.0352 66.7781 47.0648 66.8723 47.1119 66.958C47.1589 67.0437 47.2223 67.1194 47.2986 67.1806C47.3748 67.2418 47.4624 67.2873 47.5563 67.3147C47.6502 67.342 47.7485 67.3506 47.8457 67.34H54.1126C54.2106 67.3414 54.308 67.3232 54.399 67.2867C54.49 67.2501 54.5728 67.1958 54.6426 67.127C54.7125 67.0581 54.7679 66.9761 54.8058 66.8856C54.8436 66.7951 54.8631 66.6981 54.8631 66.6C54.8631 66.5019 54.8436 66.4048 54.8058 66.3144C54.7679 66.2239 54.7125 66.1418 54.6426 66.073C54.5728 66.0041 54.49 65.9498 54.399 65.9133C54.308 65.8767 54.2106 65.8586 54.1126 65.86H51.7076V55.1531C60.3767 54.8084 67.3401 47.9336 67.3401 39.4975C67.3401 30.84 60.0211 23.8419 51.0369 23.8419ZM20.9976 25.0444C20.8104 25.0812 20.6447 25.1889 20.5351 25.345L12.2794 37.0462C12.1978 37.1568 12.1487 37.2879 12.1374 37.4249C12.1262 37.5619 12.1532 37.6993 12.2157 37.8217C12.2781 37.9441 12.3733 38.0468 12.4908 38.1181C12.6083 38.1894 12.7433 38.2267 12.8807 38.2256H30.9644C31.0625 38.227 31.1598 38.2089 31.2508 38.1723C31.3418 38.1357 31.4247 38.0815 31.4945 38.0126C31.5643 37.9438 31.6198 37.8617 31.6576 37.7712C31.6955 37.6808 31.715 37.5837 31.715 37.4856C31.715 37.3875 31.6955 37.2904 31.6576 37.2C31.6198 37.1095 31.5643 37.0275 31.4945 36.9586C31.4247 36.8898 31.3418 36.8355 31.2508 36.7989C31.1598 36.7623 31.0625 36.7442 30.9644 36.7456H14.2913L21.7376 26.2006C21.8231 26.0804 21.8707 25.9373 21.8743 25.7898C21.8779 25.6422 21.8374 25.497 21.7578 25.3727C21.6783 25.2484 21.5634 25.1508 21.4279 25.0922C21.2924 25.0337 21.1426 25.0171 20.9976 25.0444ZM16.7657 41.44C16.5821 41.471 16.4169 41.5701 16.3032 41.7175L6.82193 53.3956C6.7348 53.5045 6.6802 53.6357 6.66442 53.7743C6.64864 53.9128 6.67233 54.053 6.73275 54.1787C6.79317 54.3044 6.88786 54.4104 7.00593 54.4846C7.12399 54.5588 7.26061 54.5982 7.40005 54.5981L28.5826 54.6212V65.86H26.3857C26.3395 65.8556 26.2931 65.8556 26.2469 65.86C26.0507 65.8784 25.8698 65.974 25.744 66.1258C25.6182 66.2776 25.5579 66.4731 25.5763 66.6694C25.5947 66.8656 25.6903 67.0465 25.8421 67.1723C25.9939 67.2981 26.1894 67.3584 26.3857 67.34H32.6526C32.7506 67.3414 32.848 67.3232 32.939 67.2867C33.03 67.2501 33.1128 67.1958 33.1826 67.127C33.2525 67.0581 33.3079 66.9761 33.3458 66.8856C33.3836 66.7951 33.4031 66.6981 33.4031 66.6C33.4031 66.5019 33.3836 66.4048 33.3458 66.3144C33.3079 66.2239 33.2525 66.1418 33.1826 66.073C33.1128 66.0041 33.03 65.9498 32.939 65.9133C32.848 65.8767 32.7506 65.8586 32.6526 65.86H30.0626V54.6212H46.9669C47.065 54.6226 47.1623 54.6045 47.2533 54.5679C47.3443 54.5314 47.4272 54.4771 47.497 54.4082C47.5668 54.3394 47.6223 54.2573 47.6601 54.1669C47.698 54.0764 47.7175 53.9793 47.7175 53.8812C47.7175 53.7832 47.698 53.6861 47.6601 53.5956C47.6223 53.5051 47.5668 53.4231 47.497 53.3542C47.4272 53.2854 47.3443 53.2311 47.2533 53.1945C47.1623 53.158 47.065 53.1398 46.9669 53.1412L8.94943 53.1181L17.4363 42.6656C17.539 42.5516 17.6038 42.4085 17.6216 42.2561C17.6395 42.1037 17.6095 41.9495 17.5358 41.8149C17.4622 41.6802 17.3485 41.5719 17.2105 41.5047C17.0725 41.4375 16.9171 41.4149 16.7657 41.44Z"
        fill="#bb976d"></path>
    <path
        d="M29.3688 6.65998C29.2053 6.69529 29.0586 6.78496 28.9526 6.91435L17.4826 20.6275C17.3882 20.7359 17.3275 20.8694 17.3078 21.0117C17.2881 21.1541 17.3102 21.2991 17.3715 21.429C17.4328 21.559 17.5306 21.6683 17.653 21.7436C17.7754 21.8189 17.917 21.857 18.0607 21.8531H34.4332L36.4913 24.9287C36.546 25.0092 36.6159 25.0781 36.6972 25.1316C36.7785 25.185 36.8696 25.2219 36.9651 25.2401C37.0607 25.2584 37.1589 25.2576 37.2542 25.2379C37.3494 25.2182 37.4399 25.18 37.5204 25.1253C37.6008 25.0706 37.6698 25.0007 37.7232 24.9194C37.7766 24.8381 37.8135 24.747 37.8318 24.6515C37.85 24.5559 37.8493 24.4577 37.8296 24.3624C37.8099 24.2672 37.7716 24.1767 37.7169 24.0962L36.2138 21.8531H41.0007C41.1443 21.857 41.286 21.8189 41.4084 21.7436C41.5307 21.6683 41.6286 21.559 41.6899 21.429C41.7512 21.2991 41.7733 21.1541 41.7536 21.0117C41.7339 20.8694 41.6731 20.7359 41.5788 20.6275L30.0857 6.91435C30.0004 6.81104 29.8887 6.73282 29.7624 6.68802C29.6362 6.64322 29.5001 6.63353 29.3688 6.65998ZM29.5307 8.5331L39.4282 20.3731H19.6101L29.5307 8.5331ZM51.0369 23.8419C42.0528 23.8419 34.7107 30.84 34.7107 39.4975C34.7107 43.1397 36.0081 46.4859 38.1794 49.1406C38.2402 49.2166 38.3153 49.2798 38.4004 49.3267C38.4856 49.3736 38.5792 49.4033 38.6758 49.4141C38.7725 49.4248 38.8703 49.4164 38.9637 49.3894C39.0571 49.3623 39.1442 49.3171 39.2202 49.2564C39.2961 49.1956 39.3593 49.1205 39.4062 49.0353C39.4531 48.9502 39.4828 48.8566 39.4935 48.7599C39.5043 48.6633 39.4958 48.5655 39.4687 48.4721C39.4417 48.3787 39.3964 48.2915 39.3357 48.2156C37.3678 45.8096 36.1907 42.7885 36.1907 39.4975C36.1907 31.6749 42.819 25.3219 51.0369 25.3219C59.2548 25.3219 65.8601 31.6749 65.8601 39.4975C65.8601 47.1 59.6023 53.3057 51.7076 53.65V44.0762L56.2632 39.7287C56.3765 39.6215 56.4531 39.4812 56.4819 39.3278C56.5107 39.1744 56.4904 39.0159 56.4237 38.8748C56.357 38.7337 56.2474 38.6173 56.1106 38.5423C55.9738 38.4672 55.8167 38.4373 55.6619 38.4569C55.4962 38.4748 55.3414 38.5481 55.2226 38.665L51.7076 42.0412V36.5144C51.7113 36.4091 51.6926 36.3043 51.6526 36.2069C51.6126 36.1095 51.5523 36.0218 51.4757 35.9495C51.399 35.8773 51.3079 35.8223 51.2083 35.7881C51.1087 35.7539 51.003 35.7413 50.8982 35.7512C50.7101 35.7688 50.5359 35.8577 50.4112 35.9995C50.2866 36.1414 50.2209 36.3256 50.2276 36.5144V47.2675L45.2557 42.5731C45.1676 42.4819 45.0575 42.4148 44.936 42.3784C44.8145 42.3419 44.6857 42.3373 44.5619 42.365C44.4302 42.396 44.3096 42.4626 44.213 42.5574C44.1165 42.6522 44.0478 42.7716 44.0145 42.9028C43.9811 43.0339 43.9843 43.1716 44.0237 43.3011C44.0632 43.4305 44.1373 43.5466 44.2382 43.6369L50.2276 49.3025V65.86H47.8457C47.7919 65.8541 47.7376 65.8541 47.6838 65.86C47.5866 65.8706 47.4925 65.9002 47.4067 65.9472C47.321 65.9942 47.2453 66.0577 47.1841 66.1339C47.1229 66.2101 47.0773 66.2977 47.0499 66.3915C47.0225 66.4854 47.0139 66.5837 47.0245 66.6809C47.0352 66.7781 47.0648 66.8723 47.1119 66.958C47.1589 67.0437 47.2223 67.1194 47.2986 67.1806C47.3748 67.2418 47.4624 67.2873 47.5563 67.3147C47.6502 67.342 47.7485 67.3506 47.8457 67.34H54.1126C54.2106 67.3414 54.308 67.3232 54.399 67.2867C54.49 67.2501 54.5728 67.1958 54.6426 67.127C54.7125 67.0581 54.7679 66.9761 54.8058 66.8856C54.8436 66.7951 54.8631 66.6981 54.8631 66.6C54.8631 66.5019 54.8436 66.4048 54.8058 66.3144C54.7679 66.2239 54.7125 66.1418 54.6426 66.073C54.5728 66.0041 54.49 65.9498 54.399 65.9133C54.308 65.8767 54.2106 65.8586 54.1126 65.86H51.7076V55.1531C60.3767 54.8084 67.3401 47.9336 67.3401 39.4975C67.3401 30.84 60.0211 23.8419 51.0369 23.8419ZM20.9976 25.0444C20.8104 25.0812 20.6447 25.1889 20.5351 25.345L12.2794 37.0462C12.1978 37.1568 12.1487 37.2879 12.1374 37.4249C12.1262 37.5619 12.1532 37.6993 12.2157 37.8217C12.2781 37.9441 12.3733 38.0468 12.4908 38.1181C12.6083 38.1894 12.7433 38.2267 12.8807 38.2256H30.9644C31.0625 38.227 31.1598 38.2089 31.2508 38.1723C31.3418 38.1357 31.4247 38.0815 31.4945 38.0126C31.5643 37.9438 31.6198 37.8617 31.6576 37.7712C31.6955 37.6808 31.715 37.5837 31.715 37.4856C31.715 37.3875 31.6955 37.2904 31.6576 37.2C31.6198 37.1095 31.5643 37.0275 31.4945 36.9586C31.4247 36.8898 31.3418 36.8355 31.2508 36.7989C31.1598 36.7623 31.0625 36.7442 30.9644 36.7456H14.2913L21.7376 26.2006C21.8231 26.0804 21.8707 25.9373 21.8743 25.7898C21.8779 25.6422 21.8374 25.497 21.7578 25.3727C21.6783 25.2484 21.5634 25.1508 21.4279 25.0922C21.2924 25.0337 21.1426 25.0171 20.9976 25.0444ZM16.7657 41.44C16.5821 41.471 16.4169 41.5701 16.3032 41.7175L6.82193 53.3956C6.7348 53.5045 6.6802 53.6357 6.66442 53.7743C6.64864 53.9128 6.67233 54.053 6.73275 54.1787C6.79317 54.3044 6.88786 54.4104 7.00593 54.4846C7.12399 54.5588 7.26061 54.5982 7.40005 54.5981L28.5826 54.6212V65.86H26.3857C26.3395 65.8556 26.2931 65.8556 26.2469 65.86C26.0507 65.8784 25.8698 65.974 25.744 66.1258C25.6182 66.2776 25.5579 66.4731 25.5763 66.6694C25.5947 66.8656 25.6903 67.0465 25.8421 67.1723C25.9939 67.2981 26.1894 67.3584 26.3857 67.34H32.6526C32.7506 67.3414 32.848 67.3232 32.939 67.2867C33.03 67.2501 33.1128 67.1958 33.1826 67.127C33.2525 67.0581 33.3079 66.9761 33.3458 66.8856C33.3836 66.7951 33.4031 66.6981 33.4031 66.6C33.4031 66.5019 33.3836 66.4048 33.3458 66.3144C33.3079 66.2239 33.2525 66.1418 33.1826 66.073C33.1128 66.0041 33.03 65.9498 32.939 65.9133C32.848 65.8767 32.7506 65.8586 32.6526 65.86H30.0626V54.6212H46.9669C47.065 54.6226 47.1623 54.6045 47.2533 54.5679C47.3443 54.5314 47.4272 54.4771 47.497 54.4082C47.5668 54.3394 47.6223 54.2573 47.6601 54.1669C47.698 54.0764 47.7175 53.9793 47.7175 53.8812C47.7175 53.7832 47.698 53.6861 47.6601 53.5956C47.6223 53.5051 47.5668 53.4231 47.497 53.3542C47.4272 53.2854 47.3443 53.2311 47.2533 53.1945C47.1623 53.158 47.065 53.1398 46.9669 53.1412L8.94943 53.1181L17.4363 42.6656C17.539 42.5516 17.6038 42.4085 17.6216 42.2561C17.6395 42.1037 17.6095 41.9495 17.5358 41.8149C17.4622 41.6802 17.3485 41.5719 17.2105 41.5047C17.0725 41.4375 16.9171 41.4149 16.7657 41.44Z"
        stroke="#bb976d" stroke-width="0.5" mask="url(#path-1-outside-1_1:9200)"></path>
</svg>