<svg width="78" height="78" viewBox="0 0 78 78" fill="none" xmlns="http://www.w3.org/2000/svg">
    <path
        d="M73.788 30.264L39.468 15.21C39.468 15.21 39.39 15.21 39.312 15.21H39.234H39.156C39.078 15.21 39.078 15.21 39 15.21H38.922C38.844 15.21 38.844 15.21 38.766 15.21H38.688C38.61 15.21 38.61 15.21 38.532 15.288L4.21203 30.342C3.58803 30.576 3.35403 31.278 3.58803 31.902C3.74403 32.37 4.21203 32.604 4.68003 32.604C4.83603 32.604 4.99203 32.604 5.14803 32.526L9.43803 30.654V61.854C9.43803 62.478 9.98403 63.024 10.608 63.024H18.954H36.348H43.914H51.948H59.046H61.464H67.392C68.016 63.024 68.562 62.478 68.562 61.854V30.654L72.852 32.526C73.008 32.604 73.164 32.604 73.32 32.604C73.788 32.604 74.178 32.37 74.412 31.902C74.646 31.2 74.412 30.498 73.788 30.264ZM20.124 60.528V36.348H42.666V60.528H36.27H20.124ZM59.046 60.528H53.118V47.97H60.294V60.528H59.046ZM66.222 60.528H62.634V46.8C62.634 46.176 62.088 45.63 61.464 45.63H51.948C51.324 45.63 50.778 46.176 50.778 46.8V60.528H45.084V35.256C45.084 34.632 44.538 34.086 43.914 34.086H18.954C18.33 34.086 17.784 34.632 17.784 35.256V60.606H11.778V29.484L39 17.55L66.222 29.484V60.528Z"
        fill="#bb976d"></path>
    <path
        d="M33.4622 26.286C33.4622 26.91 34.0082 27.456 34.6322 27.456H42.7442C43.3682 27.456 43.9142 26.91 43.9142 26.286C43.9142 25.662 43.3682 25.116 42.7442 25.116H34.6322C34.0082 25.116 33.4622 25.662 33.4622 26.286Z"
        fill="#bb976d"></path>
</svg>